0
SECTION
2
HEADER
9
$INSUNITS
70
5
9
$ACADVER
1
AC1014
9
$HANDSEED
5
FFFF
0
ENDSEC
0
SECTION
2
TABLES
0
TABLE
2
VPORT
5
8
100
AcDbSymbolTable
0
ENDTAB
0
TABLE
2
LTYPE
5
5
100
AcDbSymbolTable
0
LTYPE
5
14
100
AcDbSymbolTableRecord
100
AcDbLinetypeTableRecord
2
BYBLOCK
70
0
0
LTYPE
5
15
100
AcDbSymbolTableRecord
100
AcDbLinetypeTableRecord
2
BYLAYER
70
0
0
LTYPE
5
16
100
AcDbSymbolTableRecord
100
AcDbLinetypeTableRecord
2
DASHED
70
0
3
Dashed __ __ __ __ __ __ __ __ __ __ __ __ __ _
72
65
73
2
40
0.75
49
0.5
74
0
49
-0.25
74
0
0
ENDTAB
0
TABLE
2
LAYER
5
2
100
AcDbSymbolTable
70
2
0
LAYER
5
50
100
AcDbSymbolTableRecord
100
AcDbLayerTableRecord
2
0
70
0
62
7
6
CONTINUOUS
0
ENDTAB
0
TABLE
2
STYLE
5
3
100
AcDbSymbolTable
70
1
0
STYLE
5
11
100
AcDbSymbolTableRecord
100
AcDbTextStyleTableRecord
2
STANDARD
70
0
0
ENDTAB
0
TABLE
2
VIEW
5
6
100
AcDbSymbolTable
70
0
0
ENDTAB
0
TABLE
2
UCS
5
7
100
AcDbSymbolTable
70
0
0
ENDTAB
0
TABLE
2
APPID
5
9
100
AcDbSymbolTable
70
2
0
APPID
5
12
100
AcDbSymbolTableRecord
100
AcDbRegAppTableRecord
2
ACAD
70
0
0
ENDTAB
0
TABLE
2
DIMSTYLE
5
A
100
AcDbSymbolTable
70
1
0
ENDTAB
0
TABLE
2
BLOCK_RECORD
5
1
100
AcDbSymbolTable
70
1
0
BLOCK_RECORD
5
1F
100
AcDbSymbolTableRecord
100
AcDbBlockTableRecord
2
*MODEL_SPACE
0
BLOCK_RECORD
5
1B
100
AcDbSymbolTableRecord
100
AcDbBlockTableRecord
2
*PAPER_SPACE
0
ENDTAB
0
ENDSEC
0
SECTION
2
BLOCKS
0
BLOCK
5
20
100
AcDbEntity
100
AcDbBlockBegin
2
*MODEL_SPACE
0
ENDBLK
5
21
100
AcDbEntity
100
AcDbBlockEnd
0
BLOCK
5
1C
100
AcDbEntity
100
AcDbBlockBegin
2
*PAPER_SPACE
0
ENDBLK
5
1D
100
AcDbEntity
100
AcDbBlockEnd
0
ENDSEC
0
SECTION
2
ENTITIES
0
LWPOLYLINE
5
100
100
AcDbEntity
8
0
100
AcDbPolyline
90
20
70
1
43
0.0
10
-5.0015878820419344
20
-2.8459659337997456
10
-5.0015878820419344
20
-3.1459659337997454
10
-5.5015878820419344
20
-3.1459659337997454
10
-5.5015878820419344
20
-2.8459659337997456
10
-8.066587882041933
20
-2.8459659337997456
10
-8.066587882041933
20
-6.1009659337997455
10
-7.7665878820419332
20
-6.1009659337997455
10
-7.7665878820419332
20
-6.6009659337997455
10
-8.066587882041933
20
-6.6009659337997455
10
-8.066587882041933
20
-9.8459659337997465
10
-5.5165878820419323
20
-9.8459659337997465
10
-5.5165878820419323
20
-9.545965933799744
10
-5.0165878820419323
20
-9.545965933799744
10
-5.0165878820419323
20
-9.8459659337997465
10
-2.7665878820419318
20
-9.8459659337997465
10
-2.7665878820419327
20
-6.5959659337997447
10
-3.0665878820419326
20
-6.5959659337997438
10
-3.0665878820419321
20
-6.0959659337997447
10
-2.7665878820419323
20
-6.0959659337997447
10
-2.7665878820419336
20
-2.8459659337997447
0
LINE
5
101
100
AcDbEntity
8
0
100
AcDbLine
10
-7.3649628420898194
20
-2.1934996773392572
30
0
11
-6.8649628420898194
21
-2.1934996773392568
31
0
0
LINE
5
102
100
AcDbEntity
8
0
100
AcDbLine
10
-6.8649628420898194
20
-2.1934996773392568
30
0
11
-6.8649628420898203
21
-1.9006092638199013
31
0
0
LINE
5
103
100
AcDbEntity
8
0
100
AcDbLine
10
-6.8649628420898203
20
-1.9006092638199013
30
0
11
-5.8611655468163679
21
-1.9006092638199021
31
0
0
ARC
5
104
100
AcDbEntity
8
0
100
AcDbCircle
10
-1.241679766673772
20
1.2992318027366665
30
0
40
5.6194867847661616
210
0
220
0
230
1
100
AcDbArc
50
180.02828476977683
51
214.70970244499614
0
ELLIPSE
5
105
100
AcDbEntity
8
0
100
AcDbEllipse
10
-5.8611655468163697
20
1.2993907361800972
30
0
11
-1.5543122344752192e-15
21
3.5
31
0.0
40
0.2857142857142857
41
1.570126098976119
42
1.5716343441716512
0
ARC
5
106
100
AcDbEntity
8
0
100
AcDbCircle
10
-1.241679766673772
20
1.2992318027366665
30
0
40
5.6194867847661616
210
0
220
0
230
1
100
AcDbArc
50
145.28635493920083
51
179.97446198887266
0
LINE
5
107
100
AcDbEntity
8
0
100
AcDbLine
10
-5.8609453496101924
20
4.4993907360492891
30
0
11
-6.8542011251121684
21
4.4993907361801
31
0
0
LINE
5
108
100
AcDbEntity
8
0
100
AcDbLine
10
-6.8542011251121684
20
4.4993907361801
30
0
11
-6.8542011251121684
21
4.7993907361801007
31
0
0
LINE
5
109
100
AcDbEntity
8
0
100
AcDbLine
10
-6.8542011251121684
20
4.7993907361801007
30
0
11
-7.3542011251121693
21
4.7993907361801007
31
0
0
LINE
5
110
100
AcDbEntity
8
0
100
AcDbLine
10
-7.3542011251121693
20
4.7993907361801007
30
0
11
-7.3542011251121684
21
4.4993907361801
31
0
0
LINE
5
111
100
AcDbEntity
8
0
100
AcDbLine
10
-7.3542011251121684
20
4.4993907361801
30
0
11
-9.3611655468163715
21
4.4993907361800982
31
0
0
LINE
5
112
100
AcDbEntity
8
0
100
AcDbLine
10
-9.3611655468163715
20
4.4993907361800982
30
0
11
-9.3611655468163697
21
1.5491647299638531
31
0
0
LINE
5
113
100
AcDbEntity
8
0
100
AcDbLine
10
-9.3611655468163697
20
1.5491647299638531
30
0
11
-9.6611655468163704
21
1.5491647299638531
31
0
0
LINE
5
114
100
AcDbEntity
8
0
100
AcDbLine
10
-9.6611655468163704
20
1.5491647299638531
30
0
11
-9.6611655468163686
21
1.0491647299638531
31
0
0
LINE
5
115
100
AcDbEntity
8
0
100
AcDbLine
10
-9.6611655468163686
20
1.0491647299638531
30
0
11
-9.3611655468163697
21
1.0491647299638533
31
0
0
LINE
5
116
100
AcDbEntity
8
0
100
AcDbLine
10
-9.3611655468163697
20
1.0491647299638533
30
0
11
-9.3611655468163697
21
-1.9006092638199019
31
0
0
LINE
5
117
100
AcDbEntity
8
0
100
AcDbLine
10
-9.3611655468163697
20
-1.9006092638199019
30
0
11
-7.3649628420898203
21
-1.9006092638199015
31
0
0
LINE
5
118
100
AcDbEntity
8
0
100
AcDbLine
10
-7.3649628420898203
20
-1.9006092638199015
30
0
11
-7.3649628420898194
21
-2.1934996773392572
31
0
0
LWPOLYLINE
5
119
100
AcDbEntity
8
0
100
AcDbPolyline
90
16
70
1
43
0.0
10
-10.913405806123494
20
2.0381792024661642
10
-10.613405806123493
20
2.0381792024661642
10
-10.613405806123493
20
4.0505003226607439
10
-12.853670928520778
20
4.0505003226607439
10
-12.853670928520778
20
4.3505003226607428
10
-13.353670928520778
20
4.3505003226607428
10
-13.353670928520778
20
4.0505003226607439
10
-15.913405806123494
20
4.0505003226607439
10
-15.913405806123494
20
2.0539139726420634
10
-15.613405806123493
20
2.0539139726420634
10
-15.613405806123495
20
1.5539139726420637
10
-15.913405806123494
20
1.5539139726420637
10
-15.913405806123494
20
0.55050032266074322
10
-10.613405806123493
20
0.55050032266074334
10
-10.613405806123493
20
1.5381792024661645
10
-10.913405806123494
20
1.5381792024661645
0
LWPOLYLINE
5
120
100
AcDbEntity
8
0
100
AcDbPolyline
90
16
70
1
43
0.0
10
-3.0634058061234923
20
7.4441792024661666
10
-2.7634058061234925
20
7.4441792024661666
10
-2.7634058061234925
20
9.4565003226607445
10
-5.0036709285207772
20
9.4565003226607445
10
-5.0036709285207772
20
9.7565003226607452
10
-5.5036709285207772
20
9.7565003226607452
10
-5.5036709285207772
20
9.4565003226607445
10
-8.0634058061234928
20
9.4565003226607445
10
-8.0634058061234928
20
7.4599139726420658
10
-7.7634058061234921
20
7.4599139726420658
10
-7.763405806123493
20
6.9599139726420658
10
-8.0634058061234928
20
6.9599139726420658
10
-8.0634058061234928
20
5.9565003226607454
10
-2.7634058061234921
20
5.9565003226607454
10
-2.7634058061234925
20
6.9441792024661666
10
-3.0634058061234923
20
6.9441792024661666
0
LINE
5
121
100
AcDbEntity
8
0
100
AcDbLine
10
-2.095601293032467
20
-2.1934996773392572
30
0
11
-1.595601293032467
21
-2.1934996773392568
31
0
0
LINE
5
122
100
AcDbEntity
8
0
100
AcDbLine
10
-1.595601293032467
20
-2.1934996773392568
30
0
11
-1.5956012930324672
21
-1.900609263819901
31
0
0
LINE
5
123
100
AcDbEntity
8
0
100
AcDbLine
10
-1.5956012930324672
20
-1.900609263819901
30
0
11
-0.59180399775901571
21
-1.9006092638199001
31
0
0
ARC
5
124
100
AcDbEntity
8
0
100
AcDbCircle
10
4.0276817823835813
20
1.2992318027366685
30
0
40
5.6194867847661616
210
0
220
0
230
1
100
AcDbArc
50
180.02828476977683
51
214.70970244499614
0
ELLIPSE
5
125
100
AcDbEntity
8
0
100
AcDbEllipse
10
-0.59180399775901704
20
1.2993907361800974
30
0
11
-1.5543122344752192e-15
21
3.5
31
0.0
40
0.2857142857142857
41
1.570126098976119
42
1.5716343441716507
0
ARC
5
126
100
AcDbEntity
8
0
100
AcDbCircle
10
4.0276817823835813
20
1.2992318027366685
30
0
40
5.6194867847661616
210
0
220
0
230
1
100
AcDbArc
50
145.28635493920086
51
179.97446198887266
0
LINE
5
127
100
AcDbEntity
8
0
100
AcDbLine
10
-0.5915838005528391
20
4.4993907360492909
30
0
11
-1.5848395760548155
21
4.4993907361801
31
0
0
LINE
5
128
100
AcDbEntity
8
0
100
AcDbLine
10
-1.5848395760548155
20
4.4993907361801
30
0
11
-1.584839576054816
21
4.7993907361801007
31
0
0
LINE
5
129
100
AcDbEntity
8
0
100
AcDbLine
10
-1.584839576054816
20
4.7993907361801007
30
0
11
-2.0848395760548164
21
4.7993907361801007
31
0
0
LINE
5
130
100
AcDbEntity
8
0
100
AcDbLine
10
-2.0848395760548164
20
4.7993907361801007
30
0
11
-2.084839576054816
21
4.4993907361801
31
0
0
LINE
5
131
100
AcDbEntity
8
0
100
AcDbLine
10
-2.084839576054816
20
4.4993907361801
30
0
11
-4.091803997759019
21
4.4993907361800991
31
0
0
LINE
5
132
100
AcDbEntity
8
0
100
AcDbLine
10
-4.091803997759019
20
4.4993907361800991
30
0
11
-4.0918039977590164
21
1.5491647299638553
31
0
0
LINE
5
133
100
AcDbEntity
8
0
100
AcDbLine
10
-4.0918039977590164
20
1.5491647299638553
30
0
11
-4.3918039977590162
21
1.5491647299638551
31
0
0
LINE
5
134
100
AcDbEntity
8
0
100
AcDbLine
10
-4.3918039977590162
20
1.5491647299638551
30
0
11
-4.3918039977590162
21
1.0491647299638551
31
0
0
LINE
5
135
100
AcDbEntity
8
0
100
AcDbLine
10
-4.3918039977590162
20
1.0491647299638551
30
0
11
-4.0918039977590164
21
1.0491647299638553
31
0
0
LINE
5
136
100
AcDbEntity
8
0
100
AcDbLine
10
-4.0918039977590164
20
1.0491647299638553
30
0
11
-4.0918039977590155
21
-1.9006092638199017
31
0
0
LINE
5
137
100
AcDbEntity
8
0
100
AcDbLine
10
-4.0918039977590155
20
-1.9006092638199017
30
0
11
-2.095601293032467
21
-1.9006092638199013
31
0
0
LINE
5
138
100
AcDbEntity
8
0
100
AcDbLine
10
-2.095601293032467
20
-1.9006092638199013
30
0
11
-2.095601293032467
21
-2.1934996773392572
31
0
0
ENDSEC
0
SECTION
2
OBJECTS
0
DICTIONARY
5
C
100
AcDbDictionary
3
ACAD_GROUP
350
D
3
ACAD_MLINESTYLE
350
17
0
DICTIONARY
5
D
100
AcDbDictionary
0
DICTIONARY
5
1A
330
C
100
AcDbDictionary
0
DICTIONARY
5
17
100
AcDbDictionary
0
ENDSEC
0
EOF
